
<svg
	version="1.1"
	 xmlns="http://www.w3.org/2000/svg"
	 x="0px"
	 y="0px"
	 viewBox="0 0 154.8 53.5">
		<g>
			<rect x="0" y="0" fill="#ffffff" width="9.8" height="9.7"/>
			<rect x="0" y="11" fill="#ffffff" width="9.8" height="9.7"/>
			<rect x="0" y="21.9" fill="#ffffff" width="9.8" height="9.7"/>
			<rect x="0" y="32.8" fill="#ffffff" width="9.8" height="9.7"/>
			<rect x="0" y="43.8" fill="#ffffff" width="9.8" height="9.7"/>
			<rect x="11.1" y="43.8" fill="#ffffff" width="9.8" height="9.7"/>
			<rect x="11.1" y="21.9" fill="#ffffff" width="9.8" height="9.7"/>
			<rect x="11.1" y="0" fill="#ffffff" width="9.8" height="9.7"/>
			<rect x="22.1" y="3.5" fill="#ffffff" width="9.8" height="9.7"/>
			<rect x="43.8" y="0" fill="#ffffff" width="9.8" height="9.7"/>
			<rect x="43.8" y="11" fill="#ffffff" width="9.8" height="9.7"/>
			<rect x="43.8" y="21.9" fill="#ffffff" width="9.8" height="9.7"/>
			<rect x="43.8" y="32.8" fill="#ffffff" width="9.8" height="9.7"/>
			<rect x="43.8" y="43.8" fill="#ffffff" width="9.8" height="9.7"/>
			<rect x="54.9" y="43.8" fill="#ffffff" width="9.8" height="9.7"/>
			<rect x="22.1" y="14.6" fill="#ffffff" width="9.8" height="9.7"/>
			<rect x="22.1" y="29.3" fill="#ffffff" width="9.8" height="9.7"/>
			<rect x="22.1" y="40.3" fill="#ffffff" width="9.8" height="9.7"/>
			<rect x="76.8" y="3.5" fill="#ffffff" width="9.8" height="9.7"/>
			<rect x="76.8" y="14.6" fill="#ffffff" width="9.8" height="9.7"/>
			<rect x="76.8" y="25.5" fill="#ffffff" width="9.8" height="9.7"/>
			<rect x="99" y="25.5" fill="#ffffff" width="9.8" height="9.7"/>
			<rect x="76.8" y="36.5" fill="#ffffff" width="9.8" height="9.7"/>
			<rect x="87.9" y="43.8" fill="#ffffff" width="9.8" height="9.7"/>
			<rect x="87.9" y="0" fill="#ffffff" width="9.8" height="9.7"/>
			<rect x="99" y="36.5" fill="#ffffff" width="9.8" height="9.7"/>
			<rect x="99" y="25.5" fill="#ffffff" width="9.8" height="9.7"/>
			<rect x="99" y="14.6" fill="#ffffff" width="9.8" height="9.7"/>
			<rect x="99" y="14.6" fill="#ffffff" width="9.8" height="9.7"/>
			<rect x="99" y="3.5" fill="#ffffff" width="9.8" height="9.7"/>
			<rect x="99" y="3.6" fill="#ffffff" width="9.8" height="9.7"/>
			<rect x="122.8" y="0" fill="#ffffff" width="9.8" height="9.7"/>
			<rect x="122.8" y="11" fill="#ffffff" width="9.8" height="9.7"/>
			<rect x="122.8" y="32.8" fill="#ffffff" width="9.8" height="9.7"/>
			<rect x="122.8" y="43.8" fill="#ffffff" width="9.8" height="9.7"/>
			<rect x="133.9" y="14.6" fill="#ffffff" width="9.8" height="9.7"/>
			<rect x="133.9" y="25.5" fill="#ffffff" width="9.8" height="9.7"/>
			<rect x="145" y="0" fill="#ffffff" width="9.8" height="9.7"/>
			<rect x="145" y="11" fill="#ffffff" width="9.8" height="9.7"/>
			<rect x="145" y="32.8" fill="#ffffff" width="9.8" height="9.7"/>
			<rect x="145" y="43.8" fill="#ffffff" width="9.8" height="9.7"/>
		</g>
</svg>
